<svg width="48" height="48" viewBox="0 0 48 48" fill="none" xmlns="http://www.w3.org/2000/svg">
<path fill-rule="evenodd" clip-rule="evenodd" d="M24 48C37.2548 48 48 37.2548 48 24C48 10.7452 37.2548 0 24 0C10.7452 0 0 10.7452 0 24C0 37.2548 10.7452 48 24 48ZM21.034 16.8023C22.3546 16.4711 24.2863 16.4753 25.608 16.8023C26.9298 17.1293 28.1415 17.7746 29.1275 18.6764C30.1135 19.5782 30.6738 20.691 31.0727 21.9378C31.222 22.4046 31.3001 22.846 31.3243 23.2825H21.6822L36.2373 30.0064C36.5174 29.6052 37.1234 28.558 37.5168 27.3143L37.5261 27.3169C37.535 27.2777 37.5438 27.2383 37.5526 27.1989C37.5855 27.0901 37.6167 26.9798 37.6459 26.8685L37.6258 26.8558C38.0769 24.6538 38.2056 22.2441 37.5261 20.12C36.7988 17.8465 35.2182 15.0653 33.4202 13.4208C31.6223 11.7764 29.7268 10.8793 27.3165 10.283C24.9063 9.6867 20.3343 10.1274 17.9261 10.7313L21.034 16.8023ZM23.4685 31.853C22.8504 31.8819 22.3787 31.9039 22.0277 31.8171C20.5441 31.45 19.4941 30.8448 18.5082 29.943C17.5222 29.0412 16.7443 28.2133 16.3962 26.4203C16.0481 24.6273 16.1062 23.6598 16.3962 22.386L10.8834 19.6964C10.8092 20.0223 10.7281 20.345 10.6461 20.6714L10.6461 20.6714C10.1435 22.6711 9.60655 24.8079 10.4138 28.6616C11.1411 30.935 12.1629 32.8302 13.9608 34.4747C15.7588 36.1191 17.394 37.0305 19.8042 37.6268C23.4554 38.258 25.908 38.0751 28.2556 37.1785L24.9689 31.8171C24.3932 31.8099 23.8959 31.8331 23.4685 31.853Z" fill="#1896A4"/>
</svg>
