<svg width="32" height="32" viewBox="0 0 32 32" fill="none" xmlns="http://www.w3.org/2000/svg">
<path d="M7.92914 11.2042C12.3869 6.93193 19.6144 6.93193 24.0722 11.2042L24.8098 11.9111C24.9213 12.018 24.9216 12.1915 24.8103 12.2986C24.8101 12.2988 24.81 12.299 24.8098 12.2992L22.773 14.2511C22.6617 14.3578 22.4815 14.3578 22.3702 14.2511L21.6316 13.5432C18.5217 10.5628 13.4796 10.5628 10.3698 13.5432L9.57874 14.3013C9.46742 14.408 9.28724 14.408 9.17592 14.3013L7.13917 12.3493C7.02764 12.2424 7.02741 12.0689 7.13864 11.9618C7.13882 11.9616 7.13899 11.9614 7.13917 11.9613L7.92914 11.2042ZM27.6655 14.6479L29.4997 16.4058C29.7228 16.6196 29.7232 16.9666 29.5008 17.1809C29.5004 17.1813 29.5001 17.1816 29.4997 17.182L22.1353 24.24C21.9126 24.4533 21.5523 24.4533 21.3296 24.24L16.1014 19.2294C16.0457 19.176 15.9557 19.176 15.9 19.2294L10.6719 24.24C10.4492 24.4533 10.0889 24.4533 9.86624 24.24L2.50159 17.1819C2.27853 16.9681 2.27806 16.621 2.50053 16.4067C2.50088 16.4064 2.50123 16.406 2.50159 16.4057L4.33578 14.6479C4.4471 14.5412 4.62728 14.5412 4.7386 14.6479L10.1683 19.8515C10.224 19.9049 10.3141 19.9049 10.3697 19.8515L15.5977 14.8409C15.8204 14.6275 16.1807 14.6275 16.4034 14.8409L21.6317 19.8515C21.6873 19.9049 21.7774 19.9049 21.8331 19.8515L27.2627 14.6479C27.374 14.5413 27.5542 14.5413 27.6655 14.6479Z" fill="#3B99FC"/>
</svg>
